<svg xmlns="http://www.w3.org/2000/svg" width="960" height="640" viewBox="0 0 960 640" role="img" aria-label="Sushi set">
  <defs>
    <linearGradient id="bg" x1="0" y1="0" x2="1" y2="1">
      <stop offset="0" stop-color="#f9fbff"/>
      <stop offset="0.55" stop-color="#ffd8c7"/>
      <stop offset="1" stop-color="#f0875d"/>
    </linearGradient>
    <filter id="shadow" x="-20%" y="-20%" width="140%" height="140%">
      <feDropShadow dx="0" dy="18" stdDeviation="18" flood-color="#56312b" flood-opacity="0.18"/>
    </filter>
  </defs>
  <rect width="960" height="640" fill="url(#bg)"/>
  <circle cx="148" cy="116" r="82" fill="#ffffff" opacity="0.45"/>
  <circle cx="820" cy="118" r="126" fill="#ff6633" opacity="0.16"/>
  <g filter="url(#shadow)">
    <ellipse cx="480" cy="374" rx="302" ry="126" fill="#1f2a30"/>
    <ellipse cx="480" cy="350" rx="270" ry="110" fill="#fff9f2"/>
    <g>
      <ellipse cx="342" cy="332" rx="78" ry="54" fill="#1f2a30"/>
      <ellipse cx="342" cy="332" rx="54" ry="34" fill="#ffffff"/>
      <ellipse cx="342" cy="332" rx="26" ry="18" fill="#ff6633"/>
    </g>
    <g>
      <ellipse cx="476" cy="352" rx="82" ry="56" fill="#1f2a30"/>
      <ellipse cx="476" cy="352" rx="58" ry="36" fill="#ffffff"/>
      <ellipse cx="476" cy="352" rx="28" ry="18" fill="#ffb23d"/>
    </g>
    <g>
      <ellipse cx="612" cy="326" rx="82" ry="56" fill="#1f2a30"/>
      <ellipse cx="612" cy="326" rx="58" ry="36" fill="#ffffff"/>
      <ellipse cx="612" cy="326" rx="28" ry="18" fill="#45a36f"/>
    </g>
    <path d="M286 252c108-46 268-54 396 0" fill="none" stroke="#ffb3a0" stroke-width="22" stroke-linecap="round" opacity="0.75"/>
  </g>
</svg>
